ply
format ascii 1.0
comment NYUv2 proxy 3D occupancy completion export
element vertex 1219
property float x
property float y
property float z
property uchar red
property uchar green
property uchar blue
end_header
-0.350000 0.262500 0.578125 52 120 246
-0.250000 0.262500 0.578125 52 120 246
-0.150000 0.262500 0.578125 52 120 246
-0.350000 0.337500 0.578125 52 120 246
-0.250000 0.337500 0.578125 52 120 246
-0.150000 0.337500 0.578125 52 120 246
-0.450000 -0.337500 0.696875 52 120 246
-0.450000 -0.262500 0.696875 52 120 246
-0.450000 -0.187500 0.696875 52 120 246
-0.350000 0.187500 0.696875 52 120 246
-0.250000 0.187500 0.696875 52 120 246
-0.150000 0.187500 0.696875 52 120 246
-0.450000 0.262500 0.696875 52 120 246
-0.350000 0.262500 0.696875 52 120 246
-0.250000 0.262500 0.696875 52 120 246
-0.150000 0.262500 0.696875 52 120 246
-0.050000 0.262500 0.696875 52 120 246
0.150000 0.262500 0.696875 52 120 246
-0.450000 0.337500 0.696875 52 120 246
-0.350000 0.337500 0.696875 52 120 246
-0.250000 0.337500 0.696875 52 120 246
-0.150000 0.337500 0.696875 52 120 246
-0.050000 0.337500 0.696875 52 120 246
0.050000 0.337500 0.696875 52 120 246
0.150000 0.337500 0.696875 52 120 246
-0.350000 0.412500 0.696875 52 120 246
-0.250000 0.412500 0.696875 52 120 246
-0.150000 0.412500 0.696875 52 120 246
-0.450000 -0.412500 0.815625 52 120 246
-0.350000 -0.412500 0.815625 52 120 246
-0.150000 -0.412500 0.815625 52 120 246
-0.550000 -0.337500 0.815625 52 120 246
-0.450000 -0.337500 0.815625 52 120 246
-0.350000 -0.337500 0.815625 52 120 246
-0.150000 -0.337500 0.815625 52 120 246
-0.550000 -0.262500 0.815625 52 120 246
-0.450000 -0.262500 0.815625 52 120 246
-0.350000 -0.262500 0.815625 52 120 246
-0.150000 -0.262500 0.815625 52 120 246
-0.550000 -0.187500 0.815625 52 120 246
-0.450000 -0.187500 0.815625 52 120 246
-0.350000 -0.187500 0.815625 52 120 246
-0.450000 -0.112500 0.815625 52 120 246
-0.450000 -0.037500 0.815625 52 120 246
-0.350000 -0.037500 0.815625 52 120 246
-0.550000 0.037500 0.815625 52 120 246
-0.450000 0.037500 0.815625 52 120 246
-0.350000 0.037500 0.815625 52 120 246
-0.550000 0.112500 0.815625 52 120 246
-0.450000 0.112500 0.815625 52 120 246
-0.350000 0.112500 0.815625 52 120 246
-0.450000 0.187500 0.815625 52 120 246
-0.350000 0.187500 0.815625 52 120 246
-0.250000 0.187500 0.815625 52 120 246
-0.150000 0.187500 0.815625 52 120 246
-0.050000 0.187500 0.815625 52 120 246
0.050000 0.187500 0.815625 52 120 246
0.150000 0.187500 0.815625 52 120 246
-0.550000 0.262500 0.815625 52 120 246
-0.450000 0.262500 0.815625 52 120 246
-0.350000 0.262500 0.815625 52 120 246
-0.250000 0.262500 0.815625 52 120 246
-0.150000 0.262500 0.815625 52 120 246
-0.050000 0.262500 0.815625 52 120 246
0.050000 0.262500 0.815625 52 120 246
0.150000 0.262500 0.815625 52 120 246
0.250000 0.262500 0.815625 52 120 246
-0.450000 0.337500 0.815625 52 120 246
-0.350000 0.337500 0.815625 52 120 246
-0.250000 0.337500 0.815625 52 120 246
-0.150000 0.337500 0.815625 52 120 246
-0.050000 0.337500 0.815625 52 120 246
0.050000 0.337500 0.815625 52 120 246
0.150000 0.337500 0.815625 52 120 246
0.250000 0.337500 0.815625 52 120 246
-0.250000 0.412500 0.815625 52 120 246
-0.150000 0.412500 0.815625 52 120 246
-0.050000 0.412500 0.815625 52 120 246
0.050000 0.412500 0.815625 52 120 246
0.150000 0.412500 0.815625 52 120 246
0.250000 0.412500 0.815625 52 120 246
-0.450000 -0.487500 0.934375 52 120 246
-0.350000 -0.487500 0.934375 52 120 246
-0.150000 -0.487500 0.934375 52 120 246
-0.550000 -0.412500 0.934375 52 120 246
-0.450000 -0.412500 0.934375 52 120 246
-0.350000 -0.412500 0.934375 52 120 246
-0.250000 -0.412500 0.934375 52 120 246
-0.150000 -0.412500 0.934375 52 120 246
-0.050000 -0.412500 0.934375 52 120 246
-0.550000 -0.337500 0.934375 52 120 246
-0.450000 -0.337500 0.934375 52 120 246
-0.350000 -0.337500 0.934375 52 120 246
-0.250000 -0.337500 0.934375 52 120 246
-0.150000 -0.337500 0.934375 52 120 246
-0.050000 -0.337500 0.934375 52 120 246
-0.550000 -0.262500 0.934375 52 120 246
-0.450000 -0.262500 0.934375 52 120 246
-0.350000 -0.262500 0.934375 52 120 246
-0.250000 -0.262500 0.934375 52 120 246
-0.150000 -0.262500 0.934375 52 120 246
-0.050000 -0.262500 0.934375 52 120 246
-0.550000 -0.187500 0.934375 52 120 246
-0.450000 -0.187500 0.934375 52 120 246
-0.350000 -0.187500 0.934375 52 120 246
-0.250000 -0.187500 0.934375 52 120 246
-0.150000 -0.187500 0.934375 52 120 246
-0.050000 -0.187500 0.934375 52 120 246
-0.450000 -0.112500 0.934375 52 120 246
-0.350000 -0.112500 0.934375 52 120 246
-0.550000 -0.037500 0.934375 52 120 246
-0.450000 -0.037500 0.934375 52 120 246
-0.350000 -0.037500 0.934375 52 120 246
-0.250000 -0.037500 0.934375 52 120 246
-0.650000 0.037500 0.934375 52 120 246
-0.550000 0.037500 0.934375 52 120 246
-0.450000 0.037500 0.934375 52 120 246
-0.350000 0.037500 0.934375 52 120 246
-0.250000 0.037500 0.934375 52 120 246
-0.650000 0.112500 0.934375 52 120 246
-0.550000 0.112500 0.934375 52 120 246
-0.450000 0.112500 0.934375 52 120 246
-0.350000 0.112500 0.934375 52 120 246
-0.250000 0.112500 0.934375 52 120 246
-0.050000 0.112500 0.934375 52 120 246
0.050000 0.112500 0.934375 52 120 246
-0.550000 0.187500 0.934375 52 120 246
-0.450000 0.187500 0.934375 52 120 246
-0.350000 0.187500 0.934375 52 120 246
-0.250000 0.187500 0.934375 52 120 246
-0.150000 0.187500 0.934375 52 120 246
-0.050000 0.187500 0.934375 52 120 246
0.050000 0.187500 0.934375 52 120 246
0.150000 0.187500 0.934375 52 120 246
0.250000 0.187500 0.934375 52 120 246
-0.650000 0.262500 0.934375 52 120 246
-0.550000 0.262500 0.934375 52 120 246
-0.450000 0.262500 0.934375 52 120 246
-0.350000 0.262500 0.934375 52 120 246
-0.250000 0.262500 0.934375 52 120 246
-0.150000 0.262500 0.934375 52 120 246
-0.050000 0.262500 0.934375 52 120 246
0.050000 0.262500 0.934375 52 120 246
0.150000 0.262500 0.934375 52 120 246
0.250000 0.262500 0.934375 52 120 246
0.350000 0.262500 0.934375 52 120 246
-0.550000 0.337500 0.934375 52 120 246
-0.450000 0.337500 0.934375 52 120 246
-0.350000 0.337500 0.934375 52 120 246
-0.250000 0.337500 0.934375 52 120 246
-0.150000 0.337500 0.934375 52 120 246
-0.050000 0.337500 0.934375 52 120 246
0.050000 0.337500 0.934375 52 120 246
0.150000 0.337500 0.934375 52 120 246
0.250000 0.337500 0.934375 52 120 246
0.350000 0.337500 0.934375 52 120 246
0.450000 0.337500 0.934375 52 120 246
-0.250000 0.412500 0.934375 52 120 246
-0.150000 0.412500 0.934375 52 120 246
-0.050000 0.412500 0.934375 52 120 246
0.050000 0.412500 0.934375 52 120 246
0.150000 0.412500 0.934375 52 120 246
0.250000 0.412500 0.934375 52 120 246
0.350000 0.412500 0.934375 52 120 246
-0.050000 0.487500 0.934375 52 120 246
0.050000 0.487500 0.934375 52 120 246
0.150000 0.487500 0.934375 52 120 246
0.250000 0.487500 0.934375 52 120 246
0.350000 0.487500 0.934375 52 120 246
-0.350000 -0.487500 1.053125 52 120 246
-0.250000 -0.487500 1.053125 52 120 246
-0.150000 -0.487500 1.053125 52 120 246
-0.050000 -0.487500 1.053125 52 120 246
0.050000 -0.487500 1.053125 52 120 246
-0.450000 -0.412500 1.053125 52 120 246
-0.350000 -0.412500 1.053125 52 120 246
-0.250000 -0.412500 1.053125 52 120 246
-0.150000 -0.412500 1.053125 52 120 246
-0.050000 -0.412500 1.053125 52 120 246
0.050000 -0.412500 1.053125 52 120 246
-0.450000 -0.337500 1.053125 52 120 246
-0.350000 -0.337500 1.053125 52 120 246
-0.250000 -0.337500 1.053125 52 120 246
-0.150000 -0.337500 1.053125 52 120 246
-0.050000 -0.337500 1.053125 52 120 246
0.050000 -0.337500 1.053125 52 120 246
-0.550000 -0.262500 1.053125 52 120 246
-0.450000 -0.262500 1.053125 52 120 246
-0.350000 -0.262500 1.053125 52 120 246
-0.250000 -0.262500 1.053125 52 120 246
-0.150000 -0.262500 1.053125 52 120 246
-0.050000 -0.262500 1.053125 52 120 246
0.050000 -0.262500 1.053125 52 120 246
-0.650000 -0.187500 1.053125 52 120 246
-0.550000 -0.187500 1.053125 52 120 246
-0.450000 -0.187500 1.053125 52 120 246
-0.350000 -0.187500 1.053125 52 120 246
-0.250000 -0.187500 1.053125 52 120 246
-0.150000 -0.187500 1.053125 52 120 246
-0.050000 -0.187500 1.053125 52 120 246
0.050000 -0.187500 1.053125 52 120 246
-0.650000 -0.112500 1.053125 52 120 246
-0.550000 -0.112500 1.053125 52 120 246
-0.450000 -0.112500 1.053125 52 120 246
-0.350000 -0.112500 1.053125 52 120 246
-0.250000 -0.112500 1.053125 52 120 246
-0.150000 -0.112500 1.053125 52 120 246
-0.050000 -0.112500 1.053125 52 120 246
-0.650000 -0.037500 1.053125 52 120 246
-0.550000 -0.037500 1.053125 52 120 246
-0.450000 -0.037500 1.053125 52 120 246
-0.350000 -0.037500 1.053125 52 120 246
-0.250000 -0.037500 1.053125 52 120 246
-0.650000 0.037500 1.053125 52 120 246
-0.550000 0.037500 1.053125 52 120 246
-0.450000 0.037500 1.053125 52 120 246
-0.350000 0.037500 1.053125 52 120 246
-0.250000 0.037500 1.053125 52 120 246
-0.650000 0.112500 1.053125 52 120 246
-0.550000 0.112500 1.053125 52 120 246
-0.450000 0.112500 1.053125 52 120 246
-0.350000 0.112500 1.053125 52 120 246
-0.250000 0.112500 1.053125 52 120 246
-0.150000 0.112500 1.053125 52 120 246
-0.050000 0.112500 1.053125 52 120 246
0.050000 0.112500 1.053125 52 120 246
0.150000 0.112500 1.053125 52 120 246
-0.650000 0.187500 1.053125 52 120 246
-0.550000 0.187500 1.053125 52 120 246
-0.450000 0.187500 1.053125 52 120 246
-0.350000 0.187500 1.053125 52 120 246
-0.250000 0.187500 1.053125 52 120 246
-0.150000 0.187500 1.053125 52 120 246
-0.050000 0.187500 1.053125 52 120 246
0.050000 0.187500 1.053125 52 120 246
0.150000 0.187500 1.053125 52 120 246
0.250000 0.187500 1.053125 52 120 246
0.350000 0.187500 1.053125 52 120 246
-0.750000 0.262500 1.053125 52 120 246
-0.650000 0.262500 1.053125 52 120 246
-0.550000 0.262500 1.053125 52 120 246
-0.450000 0.262500 1.053125 52 120 246
-0.350000 0.262500 1.053125 52 120 246
-0.250000 0.262500 1.053125 52 120 246
-0.150000 0.262500 1.053125 52 120 246
-0.050000 0.262500 1.053125 52 120 246
0.050000 0.262500 1.053125 52 120 246
0.150000 0.262500 1.053125 52 120 246
0.250000 0.262500 1.053125 52 120 246
0.350000 0.262500 1.053125 52 120 246
0.450000 0.262500 1.053125 52 120 246
-0.650000 0.337500 1.053125 52 120 246
-0.550000 0.337500 1.053125 52 120 246
-0.450000 0.337500 1.053125 52 120 246
-0.350000 0.337500 1.053125 52 120 246
-0.250000 0.337500 1.053125 52 120 246
-0.150000 0.337500 1.053125 52 120 246
-0.050000 0.337500 1.053125 52 120 246
0.050000 0.337500 1.053125 52 120 246
0.150000 0.337500 1.053125 52 120 246
0.250000 0.337500 1.053125 52 120 246
0.350000 0.337500 1.053125 52 120 246
0.450000 0.337500 1.053125 52 120 246
0.550000 0.337500 1.053125 52 120 246
-0.150000 0.412500 1.053125 52 120 246
-0.050000 0.412500 1.053125 52 120 246
0.050000 0.412500 1.053125 52 120 246
0.150000 0.412500 1.053125 52 120 246
0.250000 0.412500 1.053125 52 120 246
0.350000 0.412500 1.053125 52 120 246
0.450000 0.412500 1.053125 52 120 246
0.550000 0.412500 1.053125 52 120 246
0.250000 0.487500 1.053125 52 120 246
0.350000 0.487500 1.053125 52 120 246
0.450000 0.487500 1.053125 52 120 246
0.550000 0.487500 1.053125 52 120 246
0.350000 0.562500 1.053125 52 120 246
-0.050000 -0.562500 1.171875 52 120 246
0.050000 -0.562500 1.171875 52 120 246
0.150000 -0.562500 1.171875 52 120 246
0.250000 -0.562500 1.171875 52 120 246
-0.150000 -0.487500 1.171875 52 120 246
-0.050000 -0.487500 1.171875 52 120 246
0.050000 -0.487500 1.171875 52 120 246
0.150000 -0.487500 1.171875 52 120 246
0.250000 -0.487500 1.171875 52 120 246
-0.350000 -0.412500 1.171875 52 120 246
-0.250000 -0.412500 1.171875 52 120 246
-0.150000 -0.412500 1.171875 52 120 246
-0.050000 -0.412500 1.171875 52 120 246
0.050000 -0.412500 1.171875 52 120 246
0.150000 -0.412500 1.171875 52 120 246
0.250000 -0.412500 1.171875 52 120 246
-0.350000 -0.337500 1.171875 52 120 246
-0.250000 -0.337500 1.171875 52 120 246
-0.150000 -0.337500 1.171875 52 120 246
-0.050000 -0.337500 1.171875 52 120 246
0.050000 -0.337500 1.171875 52 120 246
0.150000 -0.337500 1.171875 52 120 246
0.250000 -0.337500 1.171875 52 120 246
-0.650000 -0.262500 1.171875 52 120 246
-0.550000 -0.262500 1.171875 52 120 246
-0.450000 -0.262500 1.171875 52 120 246
-0.350000 -0.262500 1.171875 52 120 246
-0.250000 -0.262500 1.171875 52 120 246
-0.150000 -0.262500 1.171875 52 120 246
-0.050000 -0.262500 1.171875 52 120 246
0.050000 -0.262500 1.171875 52 120 246
0.150000 -0.262500 1.171875 52 120 246
0.250000 -0.262500 1.171875 52 120 246
-0.750000 -0.187500 1.171875 52 120 246
-0.650000 -0.187500 1.171875 52 120 246
-0.550000 -0.187500 1.171875 52 120 246
-0.450000 -0.187500 1.171875 52 120 246
-0.350000 -0.187500 1.171875 52 120 246
-0.250000 -0.187500 1.171875 52 120 246
-0.150000 -0.187500 1.171875 52 120 246
-0.050000 -0.187500 1.171875 52 120 246
0.050000 -0.187500 1.171875 52 120 246
0.150000 -0.187500 1.171875 52 120 246
0.250000 -0.187500 1.171875 52 120 246
-0.750000 -0.112500 1.171875 52 120 246
-0.650000 -0.112500 1.171875 52 120 246
-0.550000 -0.112500 1.171875 52 120 246
-0.450000 -0.112500 1.171875 52 120 246
-0.350000 -0.112500 1.171875 52 120 246
-0.250000 -0.112500 1.171875 52 120 246
-0.050000 -0.112500 1.171875 52 120 246
0.050000 -0.112500 1.171875 52 120 246
-0.750000 -0.037500 1.171875 52 120 246
-0.650000 -0.037500 1.171875 52 120 246
-0.550000 -0.037500 1.171875 52 120 246
-0.450000 -0.037500 1.171875 52 120 246
-0.350000 -0.037500 1.171875 52 120 246
-0.250000 -0.037500 1.171875 52 120 246
-0.750000 0.037500 1.171875 52 120 246
-0.650000 0.037500 1.171875 52 120 246
-0.550000 0.037500 1.171875 52 120 246
-0.450000 0.037500 1.171875 52 120 246
-0.350000 0.037500 1.171875 52 120 246
-0.250000 0.037500 1.171875 52 120 246
-0.150000 0.037500 1.171875 52 120 246
-0.750000 0.112500 1.171875 52 120 246
-0.650000 0.112500 1.171875 52 120 246
-0.550000 0.112500 1.171875 52 120 246
-0.450000 0.112500 1.171875 52 120 246
-0.350000 0.112500 1.171875 52 120 246
-0.250000 0.112500 1.171875 52 120 246
-0.150000 0.112500 1.171875 52 120 246
-0.050000 0.112500 1.171875 52 120 246
0.050000 0.112500 1.171875 52 120 246
0.150000 0.112500 1.171875 52 120 246
-0.750000 0.187500 1.171875 52 120 246
-0.650000 0.187500 1.171875 52 120 246
-0.550000 0.187500 1.171875 52 120 246
-0.450000 0.187500 1.171875 52 120 246
-0.350000 0.187500 1.171875 52 120 246
-0.250000 0.187500 1.171875 52 120 246
-0.150000 0.187500 1.171875 52 120 246
-0.050000 0.187500 1.171875 52 120 246
0.050000 0.187500 1.171875 52 120 246
0.150000 0.187500 1.171875 52 120 246
0.250000 0.187500 1.171875 52 120 246
0.350000 0.187500 1.171875 52 120 246
-0.750000 0.262500 1.171875 52 120 246
-0.650000 0.262500 1.171875 52 120 246
-0.550000 0.262500 1.171875 52 120 246
-0.450000 0.262500 1.171875 52 120 246
-0.350000 0.262500 1.171875 52 120 246
-0.250000 0.262500 1.171875 52 120 246
-0.150000 0.262500 1.171875 52 120 246
-0.050000 0.262500 1.171875 52 120 246
0.050000 0.262500 1.171875 52 120 246
0.150000 0.262500 1.171875 52 120 246
0.250000 0.262500 1.171875 52 120 246
0.350000 0.262500 1.171875 52 120 246
0.450000 0.262500 1.171875 52 120 246
0.550000 0.262500 1.171875 52 120 246
0.650000 0.262500 1.171875 52 120 246
-0.650000 0.337500 1.171875 52 120 246
-0.350000 0.337500 1.171875 52 120 246
-0.250000 0.337500 1.171875 52 120 246
-0.150000 0.337500 1.171875 52 120 246
-0.050000 0.337500 1.171875 52 120 246
0.050000 0.337500 1.171875 52 120 246
0.150000 0.337500 1.171875 52 120 246
0.250000 0.337500 1.171875 52 120 246
0.350000 0.337500 1.171875 52 120 246
0.450000 0.337500 1.171875 52 120 246
0.550000 0.337500 1.171875 52 120 246
0.650000 0.337500 1.171875 52 120 246
0.150000 0.412500 1.171875 52 120 246
0.250000 0.412500 1.171875 52 120 246
0.350000 0.412500 1.171875 52 120 246
0.450000 0.412500 1.171875 52 120 246
0.550000 0.412500 1.171875 52 120 246
0.650000 0.412500 1.171875 52 120 246
0.250000 0.487500 1.171875 52 120 246
0.350000 0.487500 1.171875 52 120 246
0.450000 0.487500 1.171875 52 120 246
0.550000 0.487500 1.171875 52 120 246
0.650000 0.487500 1.171875 52 120 246
0.350000 0.562500 1.171875 52 120 246
0.450000 0.562500 1.171875 52 120 246
0.550000 0.562500 1.171875 52 120 246
0.650000 0.562500 1.171875 52 120 246
0.150000 -0.637500 1.290625 52 120 246
0.250000 -0.637500 1.290625 52 120 246
0.050000 -0.562500 1.290625 52 120 246
0.150000 -0.562500 1.290625 52 120 246
0.250000 -0.562500 1.290625 52 120 246
0.350000 -0.562500 1.290625 52 120 246
-0.050000 -0.487500 1.290625 52 120 246
0.050000 -0.487500 1.290625 52 120 246
0.150000 -0.487500 1.290625 52 120 246
0.250000 -0.487500 1.290625 52 120 246
0.350000 -0.487500 1.290625 52 120 246
-0.050000 -0.412500 1.290625 52 120 246
0.050000 -0.412500 1.290625 52 120 246
0.150000 -0.412500 1.290625 52 120 246
0.250000 -0.412500 1.290625 52 120 246
0.350000 -0.412500 1.290625 52 120 246
-0.050000 -0.337500 1.290625 52 120 246
0.050000 -0.337500 1.290625 52 120 246
0.150000 -0.337500 1.290625 52 120 246
0.250000 -0.337500 1.290625 52 120 246
0.350000 -0.337500 1.290625 52 120 246
-0.550000 -0.262500 1.290625 52 120 246
-0.450000 -0.262500 1.290625 52 120 246
-0.350000 -0.262500 1.290625 52 120 246
-0.250000 -0.262500 1.290625 52 120 246
-0.050000 -0.262500 1.290625 52 120 246
0.050000 -0.262500 1.290625 52 120 246
0.150000 -0.262500 1.290625 52 120 246
0.250000 -0.262500 1.290625 52 120 246
0.350000 -0.262500 1.290625 52 120 246
-0.650000 -0.187500 1.290625 52 120 246
-0.550000 -0.187500 1.290625 52 120 246
-0.450000 -0.187500 1.290625 52 120 246
-0.350000 -0.187500 1.290625 52 120 246
-0.250000 -0.187500 1.290625 52 120 246
-0.150000 -0.187500 1.290625 52 120 246
-0.050000 -0.187500 1.290625 52 120 246
0.050000 -0.187500 1.290625 52 120 246
0.150000 -0.187500 1.290625 52 120 246
0.250000 -0.187500 1.290625 52 120 246
0.350000 -0.187500 1.290625 52 120 246
-0.650000 -0.112500 1.290625 52 120 246
-0.550000 -0.112500 1.290625 52 120 246
-0.450000 -0.112500 1.290625 52 120 246
-0.350000 -0.112500 1.290625 52 120 246
-0.250000 -0.112500 1.290625 52 120 246
-0.150000 -0.112500 1.290625 52 120 246
0.050000 -0.112500 1.290625 52 120 246
0.150000 -0.112500 1.290625 52 120 246
0.250000 -0.112500 1.290625 52 120 246
-0.650000 -0.037500 1.290625 52 120 246
-0.550000 -0.037500 1.290625 52 120 246
-0.450000 -0.037500 1.290625 52 120 246
-0.350000 -0.037500 1.290625 52 120 246
-0.250000 -0.037500 1.290625 52 120 246
-0.150000 -0.037500 1.290625 52 120 246
-0.650000 0.037500 1.290625 52 120 246
-0.550000 0.037500 1.290625 52 120 246
-0.450000 0.037500 1.290625 52 120 246
-0.350000 0.037500 1.290625 52 120 246
-0.250000 0.037500 1.290625 52 120 246
-0.150000 0.037500 1.290625 52 120 246
-0.050000 0.037500 1.290625 52 120 246
-0.650000 0.112500 1.290625 52 120 246
-0.450000 0.112500 1.290625 52 120 246
-0.350000 0.112500 1.290625 52 120 246
-0.250000 0.112500 1.290625 52 120 246
-0.150000 0.112500 1.290625 52 120 246
0.050000 0.112500 1.290625 52 120 246
-0.650000 0.187500 1.290625 52 120 246
-0.450000 0.187500 1.290625 52 120 246
-0.350000 0.187500 1.290625 52 120 246
-0.250000 0.187500 1.290625 52 120 246
-0.150000 0.187500 1.290625 52 120 246
-0.050000 0.187500 1.290625 52 120 246
0.050000 0.187500 1.290625 52 120 246
0.150000 0.187500 1.290625 52 120 246
0.450000 0.187500 1.290625 52 120 246
0.550000 0.187500 1.290625 52 120 246
0.650000 0.187500 1.290625 52 120 246
-0.650000 0.262500 1.290625 52 120 246
-0.450000 0.262500 1.290625 52 120 246
-0.350000 0.262500 1.290625 52 120 246
-0.250000 0.262500 1.290625 52 120 246
-0.150000 0.262500 1.290625 52 120 246
-0.050000 0.262500 1.290625 52 120 246
0.050000 0.262500 1.290625 52 120 246
0.150000 0.262500 1.290625 52 120 246
0.250000 0.262500 1.290625 52 120 246
0.350000 0.262500 1.290625 52 120 246
0.450000 0.262500 1.290625 52 120 246
0.550000 0.262500 1.290625 52 120 246
0.650000 0.262500 1.290625 52 120 246
0.750000 0.262500 1.290625 52 120 246
-0.350000 0.337500 1.290625 52 120 246
-0.250000 0.337500 1.290625 52 120 246
-0.150000 0.337500 1.290625 52 120 246
0.050000 0.337500 1.290625 52 120 246
0.150000 0.337500 1.290625 52 120 246
0.250000 0.337500 1.290625 52 120 246
0.350000 0.337500 1.290625 52 120 246
0.450000 0.337500 1.290625 52 120 246
0.550000 0.337500 1.290625 52 120 246
0.650000 0.337500 1.290625 52 120 246
0.750000 0.337500 1.290625 52 120 246
0.350000 0.412500 1.290625 52 120 246
0.450000 0.412500 1.290625 52 120 246
0.550000 0.412500 1.290625 52 120 246
0.650000 0.412500 1.290625 52 120 246
0.750000 0.412500 1.290625 52 120 246
0.350000 0.487500 1.290625 52 120 246
0.450000 0.487500 1.290625 52 120 246
0.550000 0.487500 1.290625 52 120 246
0.650000 0.487500 1.290625 52 120 246
0.750000 0.487500 1.290625 52 120 246
0.450000 0.562500 1.290625 52 120 246
0.550000 0.562500 1.290625 52 120 246
0.650000 0.562500 1.290625 52 120 246
0.750000 0.562500 1.290625 52 120 246
0.550000 0.637500 1.290625 52 120 246
0.650000 0.637500 1.290625 52 120 246
0.750000 0.637500 1.290625 52 120 246
0.250000 -0.637500 1.409375 52 120 246
0.350000 -0.637500 1.409375 52 120 246
0.450000 -0.637500 1.409375 52 120 246
0.150000 -0.562500 1.409375 52 120 246
0.250000 -0.562500 1.409375 52 120 246
0.350000 -0.562500 1.409375 52 120 246
0.450000 -0.562500 1.409375 52 120 246
0.850000 -0.562500 1.409375 52 120 246
0.050000 -0.487500 1.409375 52 120 246
0.150000 -0.487500 1.409375 52 120 246
0.250000 -0.487500 1.409375 52 120 246
0.350000 -0.487500 1.409375 52 120 246
0.450000 -0.487500 1.409375 52 120 246
0.850000 -0.487500 1.409375 52 120 246
0.050000 -0.412500 1.409375 52 120 246
0.150000 -0.412500 1.409375 52 120 246
0.250000 -0.412500 1.409375 52 120 246
0.350000 -0.412500 1.409375 52 120 246
0.450000 -0.412500 1.409375 52 120 246
0.850000 -0.412500 1.409375 52 120 246
0.050000 -0.337500 1.409375 52 120 246
0.150000 -0.337500 1.409375 52 120 246
0.250000 -0.337500 1.409375 52 120 246
0.350000 -0.337500 1.409375 52 120 246
0.450000 -0.337500 1.409375 52 120 246
0.850000 -0.337500 1.409375 52 120 246
-0.250000 -0.262500 1.409375 52 120 246
-0.150000 -0.262500 1.409375 52 120 246
-0.050000 -0.262500 1.409375 52 120 246
0.050000 -0.262500 1.409375 52 120 246
0.150000 -0.262500 1.409375 52 120 246
0.250000 -0.262500 1.409375 52 120 246
0.350000 -0.262500 1.409375 52 120 246
0.450000 -0.262500 1.409375 52 120 246
-0.550000 -0.187500 1.409375 52 120 246
-0.450000 -0.187500 1.409375 52 120 246
-0.350000 -0.187500 1.409375 52 120 246
-0.250000 -0.187500 1.409375 52 120 246
-0.150000 -0.187500 1.409375 52 120 246
-0.050000 -0.187500 1.409375 52 120 246
0.050000 -0.187500 1.409375 52 120 246
0.150000 -0.187500 1.409375 52 120 246
0.250000 -0.187500 1.409375 52 120 246
0.350000 -0.187500 1.409375 52 120 246
0.450000 -0.187500 1.409375 52 120 246
-0.550000 -0.112500 1.409375 52 120 246
-0.450000 -0.112500 1.409375 52 120 246
-0.350000 -0.112500 1.409375 52 120 246
-0.250000 -0.112500 1.409375 52 120 246
-0.150000 -0.112500 1.409375 52 120 246
-0.050000 -0.112500 1.409375 52 120 246
0.050000 -0.112500 1.409375 52 120 246
0.150000 -0.112500 1.409375 52 120 246
0.250000 -0.112500 1.409375 52 120 246
-0.550000 -0.037500 1.409375 52 120 246
-0.450000 -0.037500 1.409375 52 120 246
-0.350000 -0.037500 1.409375 52 120 246
-0.250000 -0.037500 1.409375 52 120 246
-0.150000 -0.037500 1.409375 52 120 246
-0.050000 -0.037500 1.409375 52 120 246
-0.350000 0.037500 1.409375 52 120 246
-0.250000 0.037500 1.409375 52 120 246
-0.150000 0.037500 1.409375 52 120 246
-0.050000 0.037500 1.409375 52 120 246
-0.350000 0.112500 1.409375 52 120 246
-0.250000 0.112500 1.409375 52 120 246
-0.150000 0.112500 1.409375 52 120 246
-0.050000 0.112500 1.409375 52 120 246
-0.350000 0.187500 1.409375 52 120 246
-0.250000 0.187500 1.409375 52 120 246
-0.150000 0.187500 1.409375 52 120 246
-0.050000 0.187500 1.409375 52 120 246
0.050000 0.187500 1.409375 52 120 246
0.250000 0.187500 1.409375 52 120 246
0.550000 0.187500 1.409375 52 120 246
0.650000 0.187500 1.409375 52 120 246
0.750000 0.187500 1.409375 52 120 246
0.850000 0.187500 1.409375 52 120 246
-0.350000 0.262500 1.409375 52 120 246
-0.250000 0.262500 1.409375 52 120 246
-0.150000 0.262500 1.409375 52 120 246
-0.050000 0.262500 1.409375 52 120 246
0.050000 0.262500 1.409375 52 120 246
0.150000 0.262500 1.409375 52 120 246
0.250000 0.262500 1.409375 52 120 246
0.350000 0.262500 1.409375 52 120 246
0.450000 0.262500 1.409375 52 120 246
0.550000 0.262500 1.409375 52 120 246
0.650000 0.262500 1.409375 52 120 246
0.750000 0.262500 1.409375 52 120 246
0.850000 0.262500 1.409375 52 120 246
-0.150000 0.337500 1.409375 52 120 246
-0.050000 0.337500 1.409375 52 120 246
0.050000 0.337500 1.409375 52 120 246
0.150000 0.337500 1.409375 52 120 246
0.250000 0.337500 1.409375 52 120 246
0.350000 0.337500 1.409375 52 120 246
0.450000 0.337500 1.409375 52 120 246
0.550000 0.337500 1.409375 52 120 246
0.650000 0.337500 1.409375 52 120 246
0.750000 0.337500 1.409375 52 120 246
0.850000 0.337500 1.409375 52 120 246
0.150000 0.412500 1.409375 52 120 246
0.250000 0.412500 1.409375 52 120 246
0.350000 0.412500 1.409375 52 120 246
0.450000 0.412500 1.409375 52 120 246
0.550000 0.412500 1.409375 52 120 246
0.650000 0.412500 1.409375 52 120 246
0.750000 0.412500 1.409375 52 120 246
0.850000 0.412500 1.409375 52 120 246
0.550000 0.487500 1.409375 52 120 246
0.650000 0.487500 1.409375 52 120 246
0.750000 0.487500 1.409375 52 120 246
0.850000 0.487500 1.409375 52 120 246
0.450000 0.562500 1.409375 52 120 246
0.550000 0.562500 1.409375 52 120 246
0.650000 0.562500 1.409375 52 120 246
0.750000 0.562500 1.409375 52 120 246
0.850000 0.562500 1.409375 52 120 246
0.550000 0.637500 1.409375 52 120 246
0.650000 0.637500 1.409375 52 120 246
0.750000 0.637500 1.409375 52 120 246
0.850000 0.637500 1.409375 52 120 246
0.750000 0.712500 1.409375 52 120 246
0.350000 -0.712500 1.528125 52 120 246
0.450000 -0.712500 1.528125 52 120 246
0.550000 -0.712500 1.528125 52 120 246
0.650000 -0.712500 1.528125 52 120 246
0.750000 -0.712500 1.528125 52 120 246
0.250000 -0.637500 1.528125 52 120 246
0.350000 -0.637500 1.528125 52 120 246
0.450000 -0.637500 1.528125 52 120 246
0.550000 -0.637500 1.528125 52 120 246
0.650000 -0.637500 1.528125 52 120 246
0.750000 -0.637500 1.528125 52 120 246
0.850000 -0.637500 1.528125 52 120 246
0.250000 -0.562500 1.528125 52 120 246
0.350000 -0.562500 1.528125 52 120 246
0.450000 -0.562500 1.528125 52 120 246
0.550000 -0.562500 1.528125 52 120 246
0.650000 -0.562500 1.528125 52 120 246
0.750000 -0.562500 1.528125 52 120 246
0.850000 -0.562500 1.528125 52 120 246
0.950000 -0.562500 1.528125 52 120 246
0.250000 -0.487500 1.528125 52 120 246
0.350000 -0.487500 1.528125 52 120 246
0.450000 -0.487500 1.528125 52 120 246
0.550000 -0.487500 1.528125 52 120 246
0.650000 -0.487500 1.528125 52 120 246
0.750000 -0.487500 1.528125 52 120 246
0.850000 -0.487500 1.528125 52 120 246
0.950000 -0.487500 1.528125 52 120 246
0.250000 -0.412500 1.528125 52 120 246
0.350000 -0.412500 1.528125 52 120 246
0.450000 -0.412500 1.528125 52 120 246
0.550000 -0.412500 1.528125 52 120 246
0.650000 -0.412500 1.528125 52 120 246
0.750000 -0.412500 1.528125 52 120 246
0.850000 -0.412500 1.528125 52 120 246
0.950000 -0.412500 1.528125 52 120 246
0.250000 -0.337500 1.528125 52 120 246
0.350000 -0.337500 1.528125 52 120 246
0.450000 -0.337500 1.528125 52 120 246
0.550000 -0.337500 1.528125 52 120 246
0.650000 -0.337500 1.528125 52 120 246
0.750000 -0.337500 1.528125 52 120 246
0.850000 -0.337500 1.528125 52 120 246
0.950000 -0.337500 1.528125 52 120 246
-0.150000 -0.262500 1.528125 52 120 246
-0.050000 -0.262500 1.528125 52 120 246
0.050000 -0.262500 1.528125 52 120 246
0.150000 -0.262500 1.528125 52 120 246
0.250000 -0.262500 1.528125 52 120 246
0.350000 -0.262500 1.528125 52 120 246
0.450000 -0.262500 1.528125 52 120 246
0.550000 -0.262500 1.528125 52 120 246
0.650000 -0.262500 1.528125 52 120 246
0.750000 -0.262500 1.528125 52 120 246
0.850000 -0.262500 1.528125 52 120 246
-0.250000 -0.187500 1.528125 52 120 246
-0.150000 -0.187500 1.528125 52 120 246
-0.050000 -0.187500 1.528125 52 120 246
0.050000 -0.187500 1.528125 52 120 246
0.150000 -0.187500 1.528125 52 120 246
0.250000 -0.187500 1.528125 52 120 246
0.350000 -0.187500 1.528125 52 120 246
0.450000 -0.187500 1.528125 52 120 246
0.550000 -0.187500 1.528125 52 120 246
0.650000 -0.187500 1.528125 52 120 246
0.750000 -0.187500 1.528125 52 120 246
0.850000 -0.187500 1.528125 52 120 246
-0.250000 -0.112500 1.528125 52 120 246
-0.150000 -0.112500 1.528125 52 120 246
-0.050000 -0.112500 1.528125 52 120 246
0.050000 -0.112500 1.528125 52 120 246
0.150000 -0.112500 1.528125 52 120 246
0.250000 -0.112500 1.528125 52 120 246
0.350000 -0.112500 1.528125 52 120 246
0.450000 -0.112500 1.528125 52 120 246
0.650000 -0.112500 1.528125 52 120 246
0.750000 -0.112500 1.528125 52 120 246
0.850000 -0.112500 1.528125 52 120 246
-0.250000 -0.037500 1.528125 52 120 246
-0.150000 -0.037500 1.528125 52 120 246
-0.050000 -0.037500 1.528125 52 120 246
0.050000 -0.037500 1.528125 52 120 246
0.650000 -0.037500 1.528125 52 120 246
0.750000 -0.037500 1.528125 52 120 246
0.850000 -0.037500 1.528125 52 120 246
-0.250000 0.037500 1.528125 52 120 246
-0.150000 0.037500 1.528125 52 120 246
-0.050000 0.037500 1.528125 52 120 246
0.050000 0.037500 1.528125 52 120 246
0.650000 0.037500 1.528125 52 120 246
0.750000 0.037500 1.528125 52 120 246
0.850000 0.037500 1.528125 52 120 246
-0.250000 0.112500 1.528125 52 120 246
-0.150000 0.112500 1.528125 52 120 246
-0.050000 0.112500 1.528125 52 120 246
0.050000 0.112500 1.528125 52 120 246
0.650000 0.112500 1.528125 52 120 246
0.750000 0.112500 1.528125 52 120 246
0.850000 0.112500 1.528125 52 120 246
-0.250000 0.187500 1.528125 52 120 246
-0.150000 0.187500 1.528125 52 120 246
-0.050000 0.187500 1.528125 52 120 246
0.050000 0.187500 1.528125 52 120 246
0.150000 0.187500 1.528125 52 120 246
0.250000 0.187500 1.528125 52 120 246
0.450000 0.187500 1.528125 52 120 246
0.550000 0.187500 1.528125 52 120 246
0.650000 0.187500 1.528125 52 120 246
0.750000 0.187500 1.528125 52 120 246
0.850000 0.187500 1.528125 52 120 246
0.950000 0.187500 1.528125 52 120 246
-0.150000 0.262500 1.528125 52 120 246
-0.050000 0.262500 1.528125 52 120 246
0.050000 0.262500 1.528125 52 120 246
0.150000 0.262500 1.528125 52 120 246
0.250000 0.262500 1.528125 52 120 246
0.350000 0.262500 1.528125 52 120 246
0.450000 0.262500 1.528125 52 120 246
0.550000 0.262500 1.528125 52 120 246
0.650000 0.262500 1.528125 52 120 246
0.750000 0.262500 1.528125 52 120 246
0.850000 0.262500 1.528125 52 120 246
0.950000 0.262500 1.528125 52 120 246
-0.050000 0.337500 1.528125 52 120 246
0.050000 0.337500 1.528125 52 120 246
0.150000 0.337500 1.528125 52 120 246
0.250000 0.337500 1.528125 52 120 246
0.350000 0.337500 1.528125 52 120 246
0.450000 0.337500 1.528125 52 120 246
0.550000 0.337500 1.528125 52 120 246
0.650000 0.337500 1.528125 52 120 246
0.750000 0.337500 1.528125 52 120 246
0.850000 0.337500 1.528125 52 120 246
0.950000 0.337500 1.528125 52 120 246
0.150000 0.412500 1.528125 52 120 246
0.250000 0.412500 1.528125 52 120 246
0.350000 0.412500 1.528125 52 120 246
0.450000 0.412500 1.528125 52 120 246
0.550000 0.412500 1.528125 52 120 246
0.650000 0.412500 1.528125 52 120 246
0.750000 0.412500 1.528125 52 120 246
0.850000 0.412500 1.528125 52 120 246
0.950000 0.412500 1.528125 52 120 246
0.250000 0.487500 1.528125 52 120 246
0.450000 0.487500 1.528125 52 120 246
0.550000 0.487500 1.528125 52 120 246
0.650000 0.487500 1.528125 52 120 246
0.750000 0.487500 1.528125 52 120 246
0.850000 0.487500 1.528125 52 120 246
0.950000 0.487500 1.528125 52 120 246
0.550000 0.562500 1.528125 52 120 246
0.650000 0.562500 1.528125 52 120 246
0.750000 0.562500 1.528125 52 120 246
0.850000 0.562500 1.528125 52 120 246
0.950000 0.562500 1.528125 52 120 246
0.650000 0.637500 1.528125 52 120 246
0.750000 0.637500 1.528125 52 120 246
0.850000 0.637500 1.528125 52 120 246
0.950000 0.637500 1.528125 52 120 246
0.750000 0.712500 1.528125 52 120 246
0.850000 0.712500 1.528125 52 120 246
0.550000 -0.787500 1.646875 52 120 246
0.650000 -0.787500 1.646875 52 120 246
0.750000 -0.787500 1.646875 52 120 246
0.450000 -0.712500 1.646875 52 120 246
0.550000 -0.712500 1.646875 52 120 246
0.650000 -0.712500 1.646875 52 120 246
0.750000 -0.712500 1.646875 52 120 246
0.850000 -0.712500 1.646875 52 120 246
0.350000 -0.637500 1.646875 52 120 246
0.450000 -0.637500 1.646875 52 120 246
0.550000 -0.637500 1.646875 52 120 246
0.650000 -0.637500 1.646875 52 120 246
0.750000 -0.637500 1.646875 52 120 246
0.850000 -0.637500 1.646875 52 120 246
0.950000 -0.637500 1.646875 52 120 246
0.350000 -0.562500 1.646875 52 120 246
0.450000 -0.562500 1.646875 52 120 246
0.550000 -0.562500 1.646875 52 120 246
0.650000 -0.562500 1.646875 52 120 246
0.750000 -0.562500 1.646875 52 120 246
0.850000 -0.562500 1.646875 52 120 246
0.950000 -0.562500 1.646875 52 120 246
0.350000 -0.487500 1.646875 52 120 246
0.450000 -0.487500 1.646875 52 120 246
0.550000 -0.487500 1.646875 52 120 246
0.650000 -0.487500 1.646875 52 120 246
0.750000 -0.487500 1.646875 52 120 246
0.850000 -0.487500 1.646875 52 120 246
0.950000 -0.487500 1.646875 52 120 246
0.350000 -0.412500 1.646875 52 120 246
0.450000 -0.412500 1.646875 52 120 246
0.550000 -0.412500 1.646875 52 120 246
0.650000 -0.412500 1.646875 52 120 246
0.750000 -0.412500 1.646875 52 120 246
0.850000 -0.412500 1.646875 52 120 246
0.950000 -0.412500 1.646875 52 120 246
0.350000 -0.337500 1.646875 52 120 246
0.450000 -0.337500 1.646875 52 120 246
0.550000 -0.337500 1.646875 52 120 246
0.650000 -0.337500 1.646875 52 120 246
0.750000 -0.337500 1.646875 52 120 246
0.850000 -0.337500 1.646875 52 120 246
0.950000 -0.337500 1.646875 52 120 246
-0.050000 -0.262500 1.646875 52 120 246
0.050000 -0.262500 1.646875 52 120 246
0.150000 -0.262500 1.646875 52 120 246
0.250000 -0.262500 1.646875 52 120 246
0.350000 -0.262500 1.646875 52 120 246
0.450000 -0.262500 1.646875 52 120 246
0.550000 -0.262500 1.646875 52 120 246
0.650000 -0.262500 1.646875 52 120 246
0.750000 -0.262500 1.646875 52 120 246
0.850000 -0.262500 1.646875 52 120 246
0.950000 -0.262500 1.646875 52 120 246
-0.150000 -0.187500 1.646875 52 120 246
-0.050000 -0.187500 1.646875 52 120 246
0.050000 -0.187500 1.646875 52 120 246
0.150000 -0.187500 1.646875 52 120 246
0.250000 -0.187500 1.646875 52 120 246
0.350000 -0.187500 1.646875 52 120 246
0.450000 -0.187500 1.646875 52 120 246
0.550000 -0.187500 1.646875 52 120 246
0.650000 -0.187500 1.646875 52 120 246
0.750000 -0.187500 1.646875 52 120 246
0.850000 -0.187500 1.646875 52 120 246
0.950000 -0.187500 1.646875 52 120 246
-0.150000 -0.112500 1.646875 52 120 246
-0.050000 -0.112500 1.646875 52 120 246
0.050000 -0.112500 1.646875 52 120 246
0.150000 -0.112500 1.646875 52 120 246
0.250000 -0.112500 1.646875 52 120 246
0.350000 -0.112500 1.646875 52 120 246
0.450000 -0.112500 1.646875 52 120 246
0.550000 -0.112500 1.646875 52 120 246
0.650000 -0.112500 1.646875 52 120 246
0.750000 -0.112500 1.646875 52 120 246
0.850000 -0.112500 1.646875 52 120 246
0.950000 -0.112500 1.646875 52 120 246
-0.150000 -0.037500 1.646875 52 120 246
-0.050000 -0.037500 1.646875 52 120 246
0.050000 -0.037500 1.646875 52 120 246
0.150000 -0.037500 1.646875 52 120 246
0.250000 -0.037500 1.646875 52 120 246
0.550000 -0.037500 1.646875 52 120 246
0.650000 -0.037500 1.646875 52 120 246
0.750000 -0.037500 1.646875 52 120 246
0.850000 -0.037500 1.646875 52 120 246
0.950000 -0.037500 1.646875 52 120 246
-0.150000 0.037500 1.646875 52 120 246
-0.050000 0.037500 1.646875 52 120 246
0.050000 0.037500 1.646875 52 120 246
0.150000 0.037500 1.646875 52 120 246
0.250000 0.037500 1.646875 52 120 246
0.450000 0.037500 1.646875 52 120 246
0.550000 0.037500 1.646875 52 120 246
0.650000 0.037500 1.646875 52 120 246
0.750000 0.037500 1.646875 52 120 246
0.850000 0.037500 1.646875 52 120 246
0.950000 0.037500 1.646875 52 120 246
-0.150000 0.112500 1.646875 52 120 246
-0.050000 0.112500 1.646875 52 120 246
0.050000 0.112500 1.646875 52 120 246
0.150000 0.112500 1.646875 52 120 246
0.250000 0.112500 1.646875 52 120 246
0.450000 0.112500 1.646875 52 120 246
0.550000 0.112500 1.646875 52 120 246
0.650000 0.112500 1.646875 52 120 246
0.750000 0.112500 1.646875 52 120 246
0.850000 0.112500 1.646875 52 120 246
0.950000 0.112500 1.646875 52 120 246
-0.150000 0.187500 1.646875 52 120 246
-0.050000 0.187500 1.646875 52 120 246
0.050000 0.187500 1.646875 52 120 246
0.150000 0.187500 1.646875 52 120 246
0.250000 0.187500 1.646875 52 120 246
0.350000 0.187500 1.646875 52 120 246
0.450000 0.187500 1.646875 52 120 246
0.550000 0.187500 1.646875 52 120 246
0.650000 0.187500 1.646875 52 120 246
0.750000 0.187500 1.646875 52 120 246
0.850000 0.187500 1.646875 52 120 246
0.950000 0.187500 1.646875 52 120 246
-0.050000 0.262500 1.646875 52 120 246
0.050000 0.262500 1.646875 52 120 246
0.150000 0.262500 1.646875 52 120 246
0.250000 0.262500 1.646875 52 120 246
0.350000 0.262500 1.646875 52 120 246
0.450000 0.262500 1.646875 52 120 246
0.550000 0.262500 1.646875 52 120 246
0.650000 0.262500 1.646875 52 120 246
0.750000 0.262500 1.646875 52 120 246
0.850000 0.262500 1.646875 52 120 246
0.950000 0.262500 1.646875 52 120 246
0.050000 0.337500 1.646875 52 120 246
0.150000 0.337500 1.646875 52 120 246
0.250000 0.337500 1.646875 52 120 246
0.350000 0.337500 1.646875 52 120 246
0.450000 0.337500 1.646875 52 120 246
0.550000 0.337500 1.646875 52 120 246
0.650000 0.337500 1.646875 52 120 246
0.750000 0.337500 1.646875 52 120 246
0.850000 0.337500 1.646875 52 120 246
0.950000 0.337500 1.646875 52 120 246
0.050000 0.412500 1.646875 52 120 246
0.150000 0.412500 1.646875 52 120 246
0.250000 0.412500 1.646875 52 120 246
0.350000 0.412500 1.646875 52 120 246
0.450000 0.412500 1.646875 52 120 246
0.550000 0.412500 1.646875 52 120 246
0.750000 0.412500 1.646875 52 120 246
0.850000 0.412500 1.646875 52 120 246
0.950000 0.412500 1.646875 52 120 246
0.150000 0.487500 1.646875 52 120 246
0.250000 0.487500 1.646875 52 120 246
0.350000 0.487500 1.646875 52 120 246
0.450000 0.487500 1.646875 52 120 246
0.750000 0.487500 1.646875 52 120 246
0.850000 0.487500 1.646875 52 120 246
0.950000 0.487500 1.646875 52 120 246
0.750000 0.562500 1.646875 52 120 246
0.850000 0.562500 1.646875 52 120 246
0.950000 0.562500 1.646875 52 120 246
0.750000 0.637500 1.646875 52 120 246
0.850000 0.637500 1.646875 52 120 246
0.550000 -0.787500 1.765625 52 120 246
0.650000 -0.787500 1.765625 52 120 246
0.450000 -0.712500 1.765625 52 120 246
0.550000 -0.712500 1.765625 52 120 246
0.650000 -0.712500 1.765625 52 120 246
0.750000 -0.712500 1.765625 52 120 246
0.450000 -0.637500 1.765625 52 120 246
0.550000 -0.637500 1.765625 52 120 246
0.650000 -0.637500 1.765625 52 120 246
0.750000 -0.637500 1.765625 52 120 246
0.850000 -0.637500 1.765625 52 120 246
0.450000 -0.562500 1.765625 52 120 246
0.550000 -0.562500 1.765625 52 120 246
0.650000 -0.562500 1.765625 52 120 246
0.750000 -0.562500 1.765625 52 120 246
0.850000 -0.562500 1.765625 52 120 246
0.450000 -0.487500 1.765625 52 120 246
0.550000 -0.487500 1.765625 52 120 246
0.650000 -0.487500 1.765625 52 120 246
0.750000 -0.487500 1.765625 52 120 246
0.850000 -0.487500 1.765625 52 120 246
0.450000 -0.412500 1.765625 52 120 246
0.550000 -0.412500 1.765625 52 120 246
0.650000 -0.412500 1.765625 52 120 246
0.750000 -0.412500 1.765625 52 120 246
0.850000 -0.412500 1.765625 52 120 246
0.450000 -0.337500 1.765625 52 120 246
0.550000 -0.337500 1.765625 52 120 246
0.650000 -0.337500 1.765625 52 120 246
0.750000 -0.337500 1.765625 52 120 246
0.850000 -0.337500 1.765625 52 120 246
0.150000 -0.262500 1.765625 52 120 246
0.250000 -0.262500 1.765625 52 120 246
0.350000 -0.262500 1.765625 52 120 246
0.450000 -0.262500 1.765625 52 120 246
0.550000 -0.262500 1.765625 52 120 246
0.650000 -0.262500 1.765625 52 120 246
0.750000 -0.262500 1.765625 52 120 246
0.850000 -0.262500 1.765625 52 120 246
-0.050000 -0.187500 1.765625 52 120 246
0.050000 -0.187500 1.765625 52 120 246
0.150000 -0.187500 1.765625 52 120 246
0.250000 -0.187500 1.765625 52 120 246
0.350000 -0.187500 1.765625 52 120 246
0.450000 -0.187500 1.765625 52 120 246
0.550000 -0.187500 1.765625 52 120 246
0.650000 -0.187500 1.765625 52 120 246
0.750000 -0.187500 1.765625 52 120 246
0.850000 -0.187500 1.765625 52 120 246
-0.050000 -0.112500 1.765625 52 120 246
0.050000 -0.112500 1.765625 52 120 246
0.150000 -0.112500 1.765625 52 120 246
0.250000 -0.112500 1.765625 52 120 246
0.350000 -0.112500 1.765625 52 120 246
0.450000 -0.112500 1.765625 52 120 246
0.550000 -0.112500 1.765625 52 120 246
0.650000 -0.112500 1.765625 52 120 246
0.750000 -0.112500 1.765625 52 120 246
0.850000 -0.112500 1.765625 52 120 246
-0.050000 -0.037500 1.765625 52 120 246
0.050000 -0.037500 1.765625 52 120 246
0.150000 -0.037500 1.765625 52 120 246
0.250000 -0.037500 1.765625 52 120 246
0.350000 -0.037500 1.765625 52 120 246
0.450000 -0.037500 1.765625 52 120 246
0.550000 -0.037500 1.765625 52 120 246
0.650000 -0.037500 1.765625 52 120 246
0.750000 -0.037500 1.765625 52 120 246
0.850000 -0.037500 1.765625 52 120 246
-0.050000 0.037500 1.765625 52 120 246
0.050000 0.037500 1.765625 52 120 246
0.150000 0.037500 1.765625 52 120 246
0.250000 0.037500 1.765625 52 120 246
0.350000 0.037500 1.765625 52 120 246
0.450000 0.037500 1.765625 52 120 246
0.550000 0.037500 1.765625 52 120 246
0.650000 0.037500 1.765625 52 120 246
0.750000 0.037500 1.765625 52 120 246
0.850000 0.037500 1.765625 52 120 246
-0.050000 0.112500 1.765625 52 120 246
0.050000 0.112500 1.765625 52 120 246
0.150000 0.112500 1.765625 52 120 246
0.250000 0.112500 1.765625 52 120 246
0.350000 0.112500 1.765625 52 120 246
0.450000 0.112500 1.765625 52 120 246
0.550000 0.112500 1.765625 52 120 246
0.650000 0.112500 1.765625 52 120 246
0.750000 0.112500 1.765625 52 120 246
0.850000 0.112500 1.765625 52 120 246
-0.050000 0.187500 1.765625 52 120 246
0.050000 0.187500 1.765625 52 120 246
0.150000 0.187500 1.765625 52 120 246
0.250000 0.187500 1.765625 52 120 246
0.350000 0.187500 1.765625 52 120 246
0.450000 0.187500 1.765625 52 120 246
0.550000 0.187500 1.765625 52 120 246
0.650000 0.187500 1.765625 52 120 246
0.750000 0.187500 1.765625 52 120 246
0.850000 0.187500 1.765625 52 120 246
0.050000 0.262500 1.765625 52 120 246
0.150000 0.262500 1.765625 52 120 246
0.250000 0.262500 1.765625 52 120 246
0.350000 0.262500 1.765625 52 120 246
0.450000 0.262500 1.765625 52 120 246
0.550000 0.262500 1.765625 52 120 246
0.650000 0.262500 1.765625 52 120 246
0.750000 0.262500 1.765625 52 120 246
0.850000 0.262500 1.765625 52 120 246
0.150000 0.337500 1.765625 52 120 246
0.250000 0.337500 1.765625 52 120 246
0.350000 0.337500 1.765625 52 120 246
0.450000 0.337500 1.765625 52 120 246
0.550000 0.337500 1.765625 52 120 246
0.650000 0.337500 1.765625 52 120 246
0.750000 0.337500 1.765625 52 120 246
0.850000 0.337500 1.765625 52 120 246
0.150000 0.412500 1.765625 52 120 246
0.250000 0.412500 1.765625 52 120 246
0.350000 0.412500 1.765625 52 120 246
0.450000 0.412500 1.765625 52 120 246
0.550000 0.412500 1.765625 52 120 246
0.650000 0.412500 1.765625 52 120 246
0.850000 0.412500 1.765625 52 120 246
0.850000 0.487500 1.765625 52 120 246
0.850000 0.562500 1.765625 52 120 246
0.550000 -0.712500 1.884375 52 120 246
0.650000 -0.712500 1.884375 52 120 246
0.550000 -0.637500 1.884375 52 120 246
0.650000 -0.637500 1.884375 52 120 246
0.550000 -0.562500 1.884375 52 120 246
0.650000 -0.562500 1.884375 52 120 246
0.550000 -0.487500 1.884375 52 120 246
0.650000 -0.487500 1.884375 52 120 246
0.550000 -0.412500 1.884375 52 120 246
0.650000 -0.412500 1.884375 52 120 246
0.750000 -0.412500 1.884375 52 120 246
0.550000 -0.337500 1.884375 52 120 246
0.650000 -0.337500 1.884375 52 120 246
0.750000 -0.337500 1.884375 52 120 246
0.250000 -0.262500 1.884375 52 120 246
0.350000 -0.262500 1.884375 52 120 246
0.450000 -0.262500 1.884375 52 120 246
0.550000 -0.262500 1.884375 52 120 246
0.650000 -0.262500 1.884375 52 120 246
0.150000 -0.187500 1.884375 52 120 246
0.250000 -0.187500 1.884375 52 120 246
0.350000 -0.187500 1.884375 52 120 246
0.450000 -0.187500 1.884375 52 120 246
0.550000 -0.187500 1.884375 52 120 246
0.650000 -0.187500 1.884375 52 120 246
0.150000 -0.112500 1.884375 52 120 246
0.250000 -0.112500 1.884375 52 120 246
0.350000 -0.112500 1.884375 52 120 246
0.450000 -0.112500 1.884375 52 120 246
0.550000 -0.112500 1.884375 52 120 246
0.650000 -0.112500 1.884375 52 120 246
0.050000 -0.037500 1.884375 52 120 246
0.150000 -0.037500 1.884375 52 120 246
0.250000 -0.037500 1.884375 52 120 246
0.350000 -0.037500 1.884375 52 120 246
0.450000 -0.037500 1.884375 52 120 246
0.550000 -0.037500 1.884375 52 120 246
0.650000 -0.037500 1.884375 52 120 246
0.050000 0.037500 1.884375 52 120 246
0.150000 0.037500 1.884375 52 120 246
0.250000 0.037500 1.884375 52 120 246
0.350000 0.037500 1.884375 52 120 246
0.450000 0.037500 1.884375 52 120 246
0.550000 0.037500 1.884375 52 120 246
0.650000 0.037500 1.884375 52 120 246
0.050000 0.112500 1.884375 52 120 246
0.150000 0.112500 1.884375 52 120 246
0.250000 0.112500 1.884375 52 120 246
0.350000 0.112500 1.884375 52 120 246
0.450000 0.112500 1.884375 52 120 246
0.550000 0.112500 1.884375 52 120 246
0.650000 0.112500 1.884375 52 120 246
0.050000 0.187500 1.884375 52 120 246
0.150000 0.187500 1.884375 52 120 246
0.250000 0.187500 1.884375 52 120 246
0.350000 0.187500 1.884375 52 120 246
0.450000 0.187500 1.884375 52 120 246
0.550000 0.187500 1.884375 52 120 246
0.650000 0.187500 1.884375 52 120 246
0.150000 0.262500 1.884375 52 120 246
0.250000 0.262500 1.884375 52 120 246
0.350000 0.262500 1.884375 52 120 246
0.450000 0.262500 1.884375 52 120 246
0.550000 0.262500 1.884375 52 120 246
0.650000 0.262500 1.884375 52 120 246
0.250000 0.337500 1.884375 52 120 246
0.350000 0.337500 1.884375 52 120 246
0.450000 0.337500 1.884375 52 120 246
0.550000 0.337500 1.884375 52 120 246
0.650000 0.337500 1.884375 52 120 246
0.350000 0.412500 1.884375 52 120 246
0.350000 -0.262500 2.003125 52 120 246
0.450000 -0.262500 2.003125 52 120 246
0.250000 -0.187500 2.003125 52 120 246
0.350000 -0.187500 2.003125 52 120 246
0.450000 -0.187500 2.003125 52 120 246
0.550000 -0.187500 2.003125 52 120 246
0.250000 -0.112500 2.003125 52 120 246
0.350000 -0.112500 2.003125 52 120 246
0.450000 -0.112500 2.003125 52 120 246
0.550000 -0.112500 2.003125 52 120 246
0.250000 -0.037500 2.003125 52 120 246
0.350000 -0.037500 2.003125 52 120 246
0.450000 -0.037500 2.003125 52 120 246
0.550000 -0.037500 2.003125 52 120 246
0.250000 0.037500 2.003125 52 120 246
0.350000 0.037500 2.003125 52 120 246
0.450000 0.037500 2.003125 52 120 246
0.550000 0.037500 2.003125 52 120 246
0.250000 0.112500 2.003125 52 120 246
0.350000 0.112500 2.003125 52 120 246
0.450000 0.112500 2.003125 52 120 246
0.550000 0.112500 2.003125 52 120 246
0.250000 0.187500 2.003125 52 120 246
0.350000 0.187500 2.003125 52 120 246
0.450000 0.187500 2.003125 52 120 246
0.550000 0.187500 2.003125 52 120 246
0.250000 0.262500 2.003125 52 120 246
0.350000 0.262500 2.003125 52 120 246
0.450000 0.262500 2.003125 52 120 246
0.550000 0.262500 2.003125 52 120 246
0.350000 0.337500 2.003125 52 120 246
0.450000 0.337500 2.003125 52 120 246
0.350000 -0.187500 2.121875 52 120 246
0.450000 -0.187500 2.121875 52 120 246
0.350000 -0.112500 2.121875 52 120 246
0.450000 -0.112500 2.121875 52 120 246
0.350000 -0.037500 2.121875 52 120 246
0.450000 -0.037500 2.121875 52 120 246
0.350000 0.037500 2.121875 52 120 246
0.450000 0.037500 2.121875 52 120 246
0.350000 0.112500 2.121875 52 120 246
0.450000 0.112500 2.121875 52 120 246
0.350000 0.187500 2.121875 52 120 246
0.450000 0.187500 2.121875 52 120 246
0.350000 0.262500 2.121875 52 120 246
0.450000 0.262500 2.121875 52 120 246
